<svg width="43" height="51" viewBox="0 0 43 51" fill="none" xmlns="http://www.w3.org/2000/svg">
<path d="M36.3008 12.037C34.9528 10.2846 33.2453 8.93663 31.1785 7.99304C29.1117 7.04945 26.9772 6.57765 24.7756 6.57765C22.0796 6.57765 19.6306 7.09437 17.429 8.12784C15.2723 9.11635 13.4076 10.4868 11.8349 12.2392C10.3072 13.9916 9.11644 16.0584 8.26273 18.4399C7.40902 20.7763 6.98215 23.2927 6.98215 25.9886C6.98215 28.505 7.38654 30.8862 8.19533 33.133C9.00412 35.3797 10.1724 37.3565 11.7001 39.0641C13.2278 40.7717 15.0926 42.1196 17.2942 43.1081C19.4958 44.0965 21.9896 44.5908 24.7756 44.5908C27.5163 44.5908 29.9205 44.0291 31.9873 42.9059C34.0541 41.7826 35.8065 40.2099 37.2444 38.1879L42.7038 42.2993C42.3442 42.7936 41.7153 43.5124 40.8166 44.456C39.9178 45.3548 38.7272 46.2758 37.2444 47.2194C35.7616 48.1182 33.9644 48.9044 31.8525 49.5784C29.7857 50.2972 27.3815 50.6568 24.6408 50.6568C20.8664 50.6568 17.4516 49.938 14.3961 48.5C11.3856 47.062 8.80193 45.1748 6.64515 42.8385C4.5333 40.5021 2.91571 37.8735 1.7924 34.9527C0.669094 31.9872 0.107422 28.999 0.107422 25.9886C0.107422 22.3043 0.714016 18.9117 1.9272 15.8114C3.14039 12.6661 4.82537 9.97009 6.98215 7.72344C9.18385 5.43186 11.8124 3.65701 14.8679 2.3989C17.9234 1.14079 21.2934 0.511719 24.9777 0.511719C28.1229 0.511719 31.2011 1.11831 34.2115 2.3315C37.267 3.54469 39.7608 5.40939 41.6928 7.92564L36.3008 12.037Z" fill="#37414C"/>
</svg>
