<?xml version="1.0" encoding="utf-8"?>
<svg width="288" height="282" viewBox="0 0 288 282" fill="none" xmlns="http://www.w3.org/2000/svg">
  <g filter="url(#filter0_f_3_1)">
    <g filter="url(#filter1_df_3_1)">
      <path d="M141 248C200.094 248 248 200.094 248 141C248 81.9055 200.094 34 141 34C81.9055 34 34 81.9055 34 141C34 200.094 81.9055 248 141 248Z" fill="#FA9E42"/>
    </g>
    <path d="M 139.846 273.681 C 255.62 275.525 272.694 213.982 272.692 140.34 C 272.69 66.698 213.214 7 139.846 7 C 66.477 7 7 66.699 7 140.34 C 7 213.982 24.072 271.837 139.846 273.681 Z" stroke="#FA9E42" stroke-width="10" stroke-linecap="round" stroke-dasharray="1 66" style=""/>
    <g filter="url(#filter2_f_3_1)">
      <path d="M129.57 119.799C167.001 99.9184 188.174 66.5376 176.863 45.2411C165.551 23.9447 126.038 22.7972 88.6078 42.6782C51.1773 62.5591 30.0037 95.94 41.3152 117.236C52.6267 138.533 92.1398 139.68 129.57 119.799Z" fill="#F8E36F"/>
    </g>
  </g>
  <defs>
    <filter id="filter0_f_3_1" x="0" y="0" width="282" height="282" filterUnits="userSpaceOnUse" color-interpolation-filters="sRGB">
      <feFlood flood-opacity="0" result="BackgroundImageFix"/>
      <feBlend mode="normal" in="SourceGraphic" in2="BackgroundImageFix" result="shape"/>
      <feGaussianBlur stdDeviation="1" result="effect1_foregroundBlur_3_1"/>
    </filter>
    <filter id="filter1_df_3_1" x="14" y="6" width="274" height="274" filterUnits="userSpaceOnUse" color-interpolation-filters="sRGB">
      <feFlood flood-opacity="0" result="BackgroundImageFix"/>
      <feColorMatrix in="SourceAlpha" type="matrix" values="0 0 0 0 0 0 0 0 0 0 0 0 0 0 0 0 0 0 127 0" result="hardAlpha"/>
      <feOffset dx="10" dy="2"/>
      <feGaussianBlur stdDeviation="15"/>
      <feColorMatrix type="matrix" values="0 0 0 0 0 0 0 0 0 0 0 0 0 0 0 0 0 0 0.25 0"/>
      <feBlend mode="normal" in2="BackgroundImageFix" result="effect1_dropShadow_3_1"/>
      <feBlend mode="normal" in="SourceGraphic" in2="effect1_dropShadow_3_1" result="shape"/>
      <feGaussianBlur stdDeviation="2" result="effect2_foregroundBlur_3_1"/>
    </filter>
    <filter id="filter2_f_3_1" x="18.2694" y="8.48682" width="181.639" height="145.504" filterUnits="userSpaceOnUse" color-interpolation-filters="sRGB">
      <feFlood flood-opacity="0" result="BackgroundImageFix"/>
      <feBlend mode="normal" in="SourceGraphic" in2="BackgroundImageFix" result="shape"/>
      <feGaussianBlur stdDeviation="10" result="effect1_foregroundBlur_3_1"/>
    </filter>
  </defs>
</svg>