<svg width="394" height="321" viewBox="0 0 394 321" fill="none" xmlns="http://www.w3.org/2000/svg">
<g filter="url(#filter0_f_6_550)">
<path d="M123.054 241.122C125.345 241.151 148.563 277.402 148.563 291.491C148.563 298.256 145.875 304.745 141.092 309.529C136.308 314.313 129.819 317 123.054 317C116.289 317 109.8 314.313 105.016 309.529C100.232 304.745 97.5449 298.256 97.5449 291.491C97.5449 277.402 120.765 241.097 123.054 241.122Z" fill="#42A0F0"/>
<path d="M103.604 301.027C106.153 301.806 109.392 298.6 110.84 293.866C112.287 289.133 111.394 284.663 108.845 283.884C106.296 283.105 103.057 286.311 101.609 291.045C100.162 295.778 101.055 300.248 103.604 301.027Z" fill="white"/>
<path d="M263.356 241.122C265.647 241.151 288.865 277.402 288.865 291.491C288.865 298.256 286.177 304.745 281.394 309.529C276.61 314.313 270.121 317 263.356 317C256.591 317 250.102 314.313 245.318 309.529C240.534 304.745 237.847 298.256 237.847 291.491C237.847 277.402 261.067 241.097 263.356 241.122Z" fill="#42A0F0"/>
<path d="M243.906 301.027C246.455 301.806 249.694 298.6 251.142 293.866C252.589 289.133 251.696 284.663 249.147 283.884C246.598 283.105 243.359 286.311 241.911 291.045C240.464 295.778 241.357 300.248 243.906 301.027Z" fill="white"/>
<path d="M187.91 193.295C190.201 193.324 213.419 229.575 213.419 243.664C213.419 250.429 210.731 256.918 205.947 261.702C201.164 266.485 194.675 269.173 187.91 269.173C181.144 269.173 174.656 266.485 169.872 261.702C165.088 256.918 162.401 250.429 162.401 243.664C162.401 229.575 185.621 193.27 187.91 193.295Z" fill="#42A0F0"/>
<path d="M168.46 253.2C171.009 253.979 174.248 250.773 175.696 246.039C177.143 241.305 176.25 236.836 173.701 236.057C171.152 235.278 167.913 238.484 166.465 243.217C165.018 247.951 165.911 252.42 168.46 253.2Z" fill="white"/>
</g>
<g filter="url(#filter1_f_6_550)">
<path d="M97.5 171C138.093 171 171 138.093 171 97.5C171 56.9071 138.093 24 97.5 24C56.9071 24 24 56.9071 24 97.5C24 138.093 56.9071 171 97.5 171Z" fill="#FA9E42"/>
</g>
<g filter="url(#filter2_f_6_550)">
<path d="M97.5 188C147.482 188 188 147.482 188 97.5C188 47.5182 147.482 7 97.5 7C47.5182 7 7 47.5182 7 97.5C7 147.482 47.5182 188 97.5 188Z" stroke="#FA9E42" stroke-width="10" stroke-linecap="round" stroke-dasharray="1 66"/>
</g>
<g filter="url(#filter3_f_6_550)">
<path d="M89.6698 82.824C115.412 69.151 129.974 46.1934 122.195 31.5468C114.415 16.9002 87.2404 16.1109 61.4979 29.7839C35.7554 43.4569 21.1935 66.4144 28.9729 81.061C36.7524 95.7076 63.9273 96.4969 89.6698 82.824Z" fill="#F8E36F"/>
</g>
<g filter="url(#filter4_df_6_550)">
<g filter="url(#filter5_d_6_550)">
<path d="M237.839 247.765C235.906 247.92 233.953 247.999 231.982 248H94.458C84.9918 248.035 75.6117 246.201 66.8559 242.603C58.1 239.005 50.1407 233.714 43.4346 227.032C36.7284 220.351 31.4073 212.412 27.7766 203.669C24.1458 194.927 22.2769 185.554 22.2769 176.087C22.2769 166.621 24.1458 157.248 27.7766 148.506C31.4073 139.763 36.7284 131.824 43.4346 125.143C50.1407 118.461 58.1 113.17 66.8559 109.572C75.6117 105.974 84.9918 104.14 94.458 104.175H145.734C162.358 67.6 200.645 42 245.218 42C305.045 42 353.545 88.115 353.545 145C353.545 201.885 305.045 248 245.218 248C242.738 248 240.278 247.922 237.839 247.765Z" fill="url(#paint0_linear_6_550)"/>
<path d="M245.218 247C252.504 247 259.785 246.302 266.858 244.926C273.752 243.585 280.532 241.584 287.011 238.978C293.371 236.42 299.506 233.254 305.244 229.568C310.927 225.917 316.271 221.725 321.128 217.107C325.983 212.49 330.391 207.411 334.229 202.009C338.103 196.557 341.431 190.728 344.119 184.686C346.856 178.532 348.958 172.093 350.367 165.547C351.812 158.831 352.545 151.917 352.545 145C352.545 138.082 351.812 131.169 350.367 124.452C348.958 117.906 346.856 111.467 344.119 105.314C341.431 99.2716 338.103 93.4433 334.229 87.991C330.391 82.5893 325.983 77.5095 321.128 72.8928C316.271 68.2752 310.927 64.0829 305.244 60.4323C299.506 56.7461 293.371 53.5801 287.011 51.0221C280.532 48.4165 273.752 46.4154 266.858 45.0742C259.785 43.6979 252.504 43 245.218 43C223.847 43 203.208 48.9523 185.532 60.2135C177.011 65.6418 169.354 72.1939 162.774 79.6878C156.153 87.2291 150.726 95.6069 146.644 104.588L146.377 105.175H145.733H94.4578C84.8843 105.175 75.5976 107.049 66.8558 110.747C62.6542 112.524 58.6016 114.724 54.8107 117.285C51.0555 119.822 47.5243 122.735 44.3151 125.945C41.1059 129.154 38.1923 132.685 35.6554 136.44C33.0943 140.231 30.8946 144.284 29.1175 148.485C25.42 157.227 23.5452 166.514 23.5452 176.087C23.5452 185.661 25.42 194.948 29.1175 203.689C30.8946 207.891 33.0943 211.944 35.6554 215.735C38.1923 219.49 41.1059 223.021 44.3151 226.23C47.5243 229.439 51.0555 232.353 54.8107 234.89C58.6016 237.451 62.6542 239.651 66.8558 241.428C75.5976 245.125 84.8843 247 94.4578 247H231.982C233.905 247 235.849 246.922 237.759 246.768L237.831 246.762L237.903 246.767C240.323 246.922 242.784 247 245.218 247ZM245.218 248C242.738 248 240.277 247.921 237.84 247.765C235.909 247.92 233.953 248 231.982 248H94.4578C54.7417 248 22.5452 215.803 22.5452 176.087C22.5452 136.371 54.7417 104.175 94.4578 104.175H145.733C162.358 67.5954 200.643 42 245.218 42C305.045 42 353.545 88.1151 353.545 145C353.545 201.885 305.045 248 245.218 248Z" fill="white" fill-opacity="0.5"/>
</g>
</g>
<defs>
<filter id="filter0_f_6_550" x="93.5449" y="189.295" width="199.32" height="131.705" filterUnits="userSpaceOnUse" color-interpolation-filters="sRGB">
<feFlood flood-opacity="0" result="BackgroundImageFix"/>
<feBlend mode="normal" in="SourceGraphic" in2="BackgroundImageFix" result="shape"/>
<feGaussianBlur stdDeviation="2" result="effect1_foregroundBlur_6_550"/>
</filter>
<filter id="filter1_f_6_550" x="20" y="20" width="155" height="155" filterUnits="userSpaceOnUse" color-interpolation-filters="sRGB">
<feFlood flood-opacity="0" result="BackgroundImageFix"/>
<feBlend mode="normal" in="SourceGraphic" in2="BackgroundImageFix" result="shape"/>
<feGaussianBlur stdDeviation="2" result="effect1_foregroundBlur_6_550"/>
</filter>
<filter id="filter2_f_6_550" x="0" y="0" width="195" height="195" filterUnits="userSpaceOnUse" color-interpolation-filters="sRGB">
<feFlood flood-opacity="0" result="BackgroundImageFix"/>
<feBlend mode="normal" in="SourceGraphic" in2="BackgroundImageFix" result="shape"/>
<feGaussianBlur stdDeviation="1" result="effect1_foregroundBlur_6_550"/>
</filter>
<filter id="filter3_f_6_550" x="6.87817" y="0.0239258" width="137.411" height="112.56" filterUnits="userSpaceOnUse" color-interpolation-filters="sRGB">
<feFlood flood-opacity="0" result="BackgroundImageFix"/>
<feBlend mode="normal" in="SourceGraphic" in2="BackgroundImageFix" result="shape"/>
<feGaussianBlur stdDeviation="10" result="effect1_foregroundBlur_6_550"/>
</filter>
<filter id="filter4_df_6_550" x="2.27686" y="14" width="391.269" height="266" filterUnits="userSpaceOnUse" color-interpolation-filters="sRGB">
<feFlood flood-opacity="0" result="BackgroundImageFix"/>
<feColorMatrix in="SourceAlpha" type="matrix" values="0 0 0 0 0 0 0 0 0 0 0 0 0 0 0 0 0 0 127 0" result="hardAlpha"/>
<feOffset dx="10" dy="2"/>
<feGaussianBlur stdDeviation="15"/>
<feColorMatrix type="matrix" values="0 0 0 0 0 0 0 0 0 0 0 0 0 0 0 0 0 0 0.25 0"/>
<feBlend mode="normal" in2="BackgroundImageFix" result="effect1_dropShadow_6_550"/>
<feBlend mode="normal" in="SourceGraphic" in2="effect1_dropShadow_6_550" result="shape"/>
<feGaussianBlur stdDeviation="2" result="effect2_foregroundBlur_6_550"/>
</filter>
<filter id="filter5_d_6_550" x="2.27686" y="14" width="391.269" height="266" filterUnits="userSpaceOnUse" color-interpolation-filters="sRGB">
<feFlood flood-opacity="0" result="BackgroundImageFix"/>
<feColorMatrix in="SourceAlpha" type="matrix" values="0 0 0 0 0 0 0 0 0 0 0 0 0 0 0 0 0 0 127 0" result="hardAlpha"/>
<feOffset dx="10" dy="2"/>
<feGaussianBlur stdDeviation="15"/>
<feColorMatrix type="matrix" values="0 0 0 0 0.501961 0 0 0 0 0.501961 0 0 0 0 0.501961 0 0 0 0.302 0"/>
<feBlend mode="normal" in2="BackgroundImageFix" result="effect1_dropShadow_6_550"/>
<feBlend mode="normal" in="SourceGraphic" in2="effect1_dropShadow_6_550" result="shape"/>
</filter>
<linearGradient id="paint0_linear_6_550" x1="156.44" y1="67.9561" x2="222.483" y2="259.168" gradientUnits="userSpaceOnUse">
<stop stop-color="white" stop-opacity="0.596"/>
<stop offset="1" stop-color="#F7F7F7" stop-opacity="0.204"/>
</linearGradient>
</defs>
</svg>
